<svg width="418" height="367" viewBox="0 0 418 367" fill="none" xmlns="http://www.w3.org/2000/svg">
<g clip-path="url(#clip0_7_18)">
<path d="M105.442 352.177C104.981 352.196 104.524 352.09 104.134 351.875C103.744 351.66 103.439 351.345 103.261 350.974C103.083 350.603 103.04 350.193 103.139 349.799C103.237 349.406 103.471 349.049 103.81 348.776C103.867 348.579 103.908 348.438 103.965 348.241C103.523 347.264 102.757 346.424 101.764 345.828C100.771 345.233 99.5973 344.91 98.3923 344.9C97.1873 344.89 96.0063 345.194 95.0008 345.773C93.9953 346.352 93.2111 347.179 92.7486 348.149C90.0798 353.593 86.6258 359.229 88.3436 365.225C76.9973 344.268 80.8559 318.199 97.6241 300.277C102.259 298.052 106.016 294.098 106.994 289.508C104.7 290.185 101.84 288.559 103.565 286.453C104.312 285.648 105.067 284.85 105.815 284.045C97.1009 275.958 86.7188 288.668 96.31 299.584C93.1724 303.012 90.4547 306.717 88.2011 310.638C88.7216 306.475 88.1004 302.263 86.3888 298.35C84.6541 294.703 81.4027 291.631 78.5394 288.478C75.058 284.637 67.8929 286.409 67.4245 291.284C70.6373 292.204 71.0547 296.249 67.3796 296.802C68.3422 305.872 75.1408 314.206 84.5046 318.184C81.0466 326.64 79.6964 335.64 80.5438 344.587C78.891 334.131 66.013 331.594 57.0119 327.438C56.4391 327.118 55.7716 326.95 55.0911 326.955C54.4105 326.96 53.7463 327.137 53.1794 327.465C52.6124 327.793 52.1674 328.258 51.8984 328.803C51.6294 329.348 51.5482 329.949 51.6647 330.534C52.907 330.974 54.0961 331.52 55.2144 332.166C55.7385 332.473 56.1407 332.913 56.366 333.427C56.5913 333.942 56.6286 334.504 56.4729 335.037C56.3171 335.57 55.976 336.049 55.4961 336.406C55.0162 336.764 54.4212 336.984 53.7925 337.035C58.3296 346.821 70.0599 353.393 82.1076 353.356C83.2653 357.741 84.9428 362.009 87.113 366.091H104.994C105.058 365.918 105.116 365.739 105.174 365.566C103.519 365.657 101.857 365.57 100.226 365.309C104.605 360.791 107.991 358.485 105.443 352.177L105.442 352.177Z" fill="#F05740"/>
<path d="M264.857 352.177C265.318 352.196 265.774 352.09 266.165 351.875C266.555 351.66 266.859 351.345 267.038 350.974C267.216 350.603 267.259 350.193 267.16 349.799C267.062 349.406 266.828 349.049 266.489 348.776C266.432 348.579 266.391 348.438 266.334 348.241C266.776 347.264 267.542 346.424 268.535 345.828C269.528 345.233 270.702 344.91 271.907 344.9C273.112 344.89 274.293 345.194 275.298 345.773C276.304 346.352 277.088 347.179 277.55 348.149C280.219 353.593 283.673 359.229 281.955 365.225C293.302 344.268 289.443 318.199 272.675 300.277C268.04 298.052 264.283 294.098 263.305 289.508C265.599 290.185 268.459 288.559 266.734 286.453C265.987 285.648 265.232 284.85 264.484 284.045C273.198 275.958 283.58 288.668 273.989 299.584C277.127 303.012 279.844 306.717 282.098 310.638C281.577 306.475 282.198 302.263 283.91 298.35C285.645 294.703 288.896 291.631 291.76 288.478C295.241 284.637 302.406 286.409 302.874 291.284C299.662 292.204 299.244 296.249 302.919 296.802C301.957 305.872 295.158 314.206 285.794 318.184C289.252 326.64 290.603 335.64 289.755 344.587C291.408 334.131 304.286 331.594 313.287 327.438C313.86 327.118 314.527 326.95 315.208 326.955C315.888 326.96 316.553 327.137 317.12 327.465C317.687 327.793 318.132 328.258 318.401 328.803C318.67 329.348 318.751 329.949 318.634 330.534C317.392 330.974 316.203 331.52 315.085 332.166C314.561 332.473 314.158 332.913 313.933 333.427C313.708 333.942 313.67 334.504 313.826 335.037C313.982 335.57 314.323 336.049 314.803 336.406C315.283 336.764 315.878 336.984 316.506 337.035C311.969 346.821 300.239 353.393 288.191 353.356C287.034 357.741 285.356 362.009 283.186 366.091H265.305C265.241 365.918 265.183 365.739 265.125 365.566C266.78 365.657 268.442 365.57 270.073 365.309C265.694 360.791 262.308 358.485 264.856 352.177L264.857 352.177Z" fill="#F05740"/>
<path d="M271.487 354.491L263.786 356.017L253.363 330.858L264.729 328.605L271.487 354.491Z" fill="#FFB6B6"/>
<path d="M273.586 361.438L249.906 366.134L249.838 365.873C249.281 363.742 249.719 361.507 251.054 359.658C252.389 357.808 254.513 356.497 256.957 356.012L256.958 356.012L260.536 352.294L269.354 353.554L271.421 353.144L273.586 361.438Z" fill="#2F2E41"/>
<path d="M395.71 231.855L399.943 237.665L376.243 254.662L369.995 246.087L395.71 231.855Z" fill="#FFB6B6"/>
<path d="M402.515 227.801L415.535 245.668L415.275 245.811C413.159 246.983 410.596 247.373 408.149 246.897C405.702 246.422 403.572 245.118 402.228 243.274L402.228 243.273L397.009 241.582L395.413 233.921L394.276 232.361L402.515 227.801Z" fill="#2F2E41"/>
<path d="M150.242 169.738L148.34 160.13L177.256 148.751L183.5 139.115C183.299 138.27 183.369 137.392 183.704 136.579C184.039 135.766 184.625 135.05 185.397 134.509C186.17 133.969 187.099 133.624 188.082 133.515C189.065 133.405 190.063 133.535 190.967 133.889C191.871 134.243 192.645 134.808 193.203 135.521C193.762 136.234 194.084 137.068 194.132 137.931C194.181 138.793 193.956 139.651 193.481 140.409C193.005 141.166 192.299 141.795 191.44 142.225L181.167 156.066L150.242 169.738Z" fill="#A0616A"/>
<path d="M141.452 161.884L154.474 156.087L157.921 167.367L148.876 173.21L141.452 161.884Z" fill="#91C0C8"/>
<path d="M112.233 353.617L120.106 353.617L123.851 327.15L112.231 327.151L112.233 353.617Z" fill="#A0616A"/>
<path d="M122.726 354.235V349.583L120.656 349.693L112.23 350.128L110.28 350.233L108.789 365.812L108.71 366.647H114.3L114.48 365.818L115.292 362.048L117.388 365.818L117.847 366.647H132.669C133.551 366.643 134.395 366.335 135.018 365.791C135.641 365.246 135.993 364.51 135.997 363.741C136.622 361.195 124.297 355.691 122.726 354.235Z" fill="#2F2E41"/>
<path d="M18.7732 248.582L16.9378 255.255L45.5965 264.6L48.305 254.752L18.7732 248.582Z" fill="#A0616A"/>
<path d="M16.2605 257.331L21.451 258.416L21.8106 256.636L23.2898 249.394L23.628 247.717L6.59187 242.821L5.67852 242.558L4.37503 247.296L5.25862 247.642L9.27608 249.209L4.58049 250.107L3.54793 250.302L0.0921377 262.864C-0.108076 263.612 0.0386408 264.399 0.500459 265.054C0.962276 265.709 1.70189 266.179 2.55869 266.361C5.25401 267.485 14.2698 258.323 16.2605 257.331Z" fill="#2F2E41"/>
<path d="M124.406 182.326L114.272 178.198L94.0624 199.513L81.7524 202.226C80.8695 201.834 79.8794 201.662 78.8916 201.729C77.9037 201.797 76.9564 202.101 76.1544 202.608C75.3523 203.115 74.7267 203.806 74.3467 204.603C73.9667 205.401 73.847 206.274 74.0009 207.127C74.1548 207.98 74.5763 208.78 75.2188 209.437C75.8613 210.095 76.6998 210.585 77.6417 210.853C78.5836 211.121 79.5922 211.157 80.5562 210.957C81.5202 210.757 82.402 210.329 83.1042 209.72L101.13 204.727L124.406 182.326Z" fill="#A0616A"/>
<path d="M181.783 253.218C156.597 253.218 127.652 228.861 102.043 240.434C24.5056 275.474 35.1791 216.84 12.9031 195.033L13.6345 193.755C38.2134 212.962 68.901 228.589 102.38 238.947C132.634 248.307 163.116 252.645 190.517 251.5L190.565 253.037C187.671 253.158 184.744 253.219 181.783 253.218Z" fill="#F05740"/>
<path d="M147.235 88.5334C150.142 88.5334 152.499 85.7789 152.499 82.381C152.499 78.9831 150.142 76.2286 147.235 76.2286C144.327 76.2286 141.97 78.9831 141.97 82.381C141.97 85.7789 144.327 88.5334 147.235 88.5334Z" fill="#F05740"/>
<path d="M208.04 184.512C205.633 185.909 203.17 182.583 205.623 181.247C208.029 179.85 210.493 183.176 208.04 184.512Z" fill="#F05740"/>
<path d="M194.186 72.5254C197.972 72.5254 201.041 69.8505 201.041 66.5508C201.041 63.2512 197.972 60.5763 194.186 60.5763C190.4 60.5763 187.331 63.2512 187.331 66.5508C187.331 69.8505 190.4 72.5254 194.186 72.5254Z" fill="#FF6584"/>
<path opacity="0.3" d="M218.164 99.2907L257.173 0L214.338 98.1022C214.127 98.335 213.981 98.6085 213.915 98.9C213.849 99.1915 213.863 99.4926 213.957 99.7783C214.051 100.064 214.222 100.326 214.455 100.543C214.688 100.759 214.978 100.924 215.299 101.024C215.62 101.124 215.964 101.156 216.302 101.117C216.64 101.077 216.962 100.968 217.242 100.799C217.522 100.63 217.752 100.404 217.912 100.142C218.073 99.8797 218.159 99.5879 218.164 99.2907H218.164Z" fill="#F05740"/>
<path d="M178.789 220.256C182.472 220.256 185.459 217.653 185.459 214.443C185.459 211.233 182.472 208.63 178.789 208.63C175.105 208.63 172.119 211.233 172.119 214.443C172.119 217.653 175.105 220.256 178.789 220.256Z" fill="#F05740"/>
<path d="M114.189 216.66C114.189 216.66 97.5615 226.096 101.958 232.367C102.11 232.583 82.0965 255.619 82.0965 255.619L44.3158 253.529L42.9847 264.549L76.6197 273.039C76.6197 273.039 84.8482 278.308 91.2049 272.503C97.5616 266.698 118.735 248.922 118.735 248.922L119.756 284.811L109.127 334.542L124.998 333.665L140.444 283.772L146.146 227.256L114.189 216.66Z" fill="#2F2E41"/>
<path d="M126.033 160.028L119.041 164.646L111.071 179.47L118.735 188.541C118.735 188.541 125.181 198.278 114.863 207.707C104.544 217.136 96.6208 227.207 104.88 226.848C113.139 226.488 146.589 241.315 146.809 229.168C147.029 217.02 147.474 207.707 147.474 207.707L156.244 188.322C156.244 188.322 161.469 176.758 157.801 173.296C154.132 169.834 149.221 165.411 149.221 165.411L140.289 157.627H132.224L126.033 160.028Z" fill="#91C0C8"/>
<path d="M139.086 131.545C154.773 139.324 141.895 159.85 125.916 152.541C110.23 144.762 123.108 124.236 139.086 131.545Z" fill="#A0616A"/>
<path d="M147.474 135.858C146.375 137.104 144.079 136.52 139.582 137.409C139.592 136.08 139.415 134.756 139.057 133.465C138.723 135.063 137.989 136.579 136.909 137.904C133.004 138.281 137.791 148.62 135.792 156.221C133.216 140.185 127.798 144.386 130.535 147.567C132.287 149.603 131.119 155.712 125.862 152.657C117.188 156.25 104.834 138.404 118.526 130.034C118.281 125.51 124.057 124.795 127.614 126.186C136.246 120.582 146.108 127.763 147.474 135.858Z" fill="#2F2E41"/>
<path d="M107.226 124.157C103.733 142.87 85.0142 120.715 76.2126 139.131C73.4453 145.8 78.1933 150.571 81.1967 156.107C81.8821 160.657 75.0912 162.965 74.3799 167.152C74.1819 176.753 91.9546 176.166 96.9231 170.108C102.028 163.768 95.9319 155.26 99.0005 148.454C103.313 139.005 120.853 138.935 122.381 127.941C119.422 124.269 111.464 120.063 107.226 124.157Z" fill="#2F2E41"/>
<path d="M121.374 125.985C121.259 126.027 121.145 126.069 121.043 126.116H121.037C120.941 126.158 120.844 126.2 120.748 126.247C120.736 126.253 120.73 126.258 120.718 126.263C120.592 126.158 120.466 126.054 120.333 125.949C120.299 126.119 120.307 126.295 120.357 126.462L120.375 126.525C120.496 126.635 120.622 126.74 120.754 126.85C120.875 126.772 120.989 126.688 121.109 126.609C121.181 126.557 121.253 126.504 121.332 126.452C121.344 126.316 121.362 126.158 121.38 125.985L121.374 125.985ZM124.994 120.158C122.312 119.623 121.446 122.679 121.187 124.151C120.213 118.806 116.16 120.488 117.561 124.135C118.008 125.215 118.711 126.201 119.624 127.028C119.75 127.154 119.888 127.28 120.033 127.406C119.87 128.139 120.688 127.951 121.795 127.275C122.612 126.768 123.367 126.191 124.05 125.55C126.256 123.533 127.976 120.834 124.994 120.158ZM125.078 123.166C124.25 124.096 123.322 124.954 122.306 125.729C121.987 125.98 121.662 126.221 121.332 126.452C121.325 126.499 121.325 126.541 121.319 126.578C121.296 126.629 121.268 126.678 121.235 126.724C120.899 127.254 120.52 126.965 120.375 126.525C120.363 126.51 120.345 126.494 120.333 126.478C119.853 126.045 119.435 125.563 119.089 125.042C116.605 121.29 120.604 118.738 120.405 125.744C120.369 125.809 120.345 125.878 120.333 125.949C120.299 126.119 120.307 126.295 120.357 126.462L120.375 126.525C120.496 126.635 120.622 126.74 120.754 126.85C120.875 126.772 120.989 126.688 121.109 126.609C121.181 126.557 121.253 126.504 121.332 126.452C121.344 126.316 121.362 126.158 121.38 125.985V125.98C121.536 124.576 121.963 122.05 122.751 121.363C124.482 120.205 126.725 121.458 125.078 123.166ZM121.374 125.985C121.259 126.027 121.145 126.069 121.043 126.116H121.037C120.941 126.158 120.844 126.2 120.748 126.247C120.736 126.253 120.73 126.258 120.718 126.263C120.592 126.158 120.466 126.054 120.333 125.949C120.299 126.119 120.307 126.295 120.357 126.462L120.375 126.525C120.496 126.635 120.622 126.74 120.754 126.85C120.875 126.772 120.989 126.688 121.109 126.609C121.181 126.557 121.253 126.504 121.332 126.452C121.344 126.316 121.362 126.158 121.38 125.985L121.374 125.985Z" fill="#2F2E41"/>
<path d="M266.361 229.16L260.567 242.328L233.39 289.048L257.271 343.399L269.595 340.563L259.437 289.048L288.581 258.187L323.192 278.646C323.192 278.646 338.542 289.089 344.382 279.189C350.221 269.288 388.007 248.23 388.007 248.23L378.659 239.54L335.146 257.286L305.114 220.446L266.361 229.16Z" fill="#2F2E41"/>
<path d="M295.594 167.05L286.057 158.12L269.698 156.159L249.652 168.388L249.854 181.925L259.764 213.823C259.764 213.823 255.989 236.74 266.532 236.511C277.074 236.281 282.82 231.7 287.114 232.633C291.408 233.565 309.661 237.533 310.817 233.377C311.974 229.22 318.123 232.196 317.853 228.264C317.583 224.332 301.207 195.987 301.207 195.987L305.279 167.639L295.594 167.05Z" fill="#91C0C8"/>
<path d="M355.978 125.945C356.064 126.685 355.962 127.433 355.679 128.135C355.397 128.838 354.942 129.478 354.345 130.01C353.748 130.543 353.025 130.955 352.226 131.217C351.427 131.48 350.571 131.586 349.72 131.53L327.788 167.88L321.9 160.002L344.317 125.696C344.521 124.455 345.241 123.323 346.339 122.514C347.437 121.705 348.837 121.275 350.275 121.306C351.712 121.337 353.086 121.826 354.138 122.681C355.189 123.536 355.844 124.697 355.978 125.945Z" fill="#FFB6B6"/>
<path d="M286.936 173.809C286.936 173.809 286.066 180.275 294.418 181.875C302.771 183.476 325.911 171.953 329.704 170.193C330.892 169.641 332.504 166.94 334.158 163.489C334.901 161.94 335.652 160.239 336.377 158.515C336.796 157.517 338.805 157.244 339.2 156.254C339.593 155.27 338.373 153.568 338.729 152.64C340.419 148.237 341.616 144.743 341.616 144.743L336.08 135.68C328.338 139.248 324.367 147.105 321.446 156.158L286.936 173.809Z" fill="#91C0C8"/>
<path d="M189.389 134.292C189.52 135.028 189.833 135.73 190.308 136.348C190.783 136.967 191.408 137.487 192.138 137.872C192.869 138.258 193.688 138.499 194.537 138.579C195.386 138.659 196.244 138.575 197.053 138.334L228.724 168.745L232.163 159.834L200.608 131.508C200.054 130.351 199.033 129.412 197.737 128.869C196.442 128.325 194.963 128.214 193.58 128.557C192.197 128.9 191.007 129.674 190.234 130.731C189.462 131.788 189.161 133.055 189.389 134.292Z" fill="#FFB6B6"/>
<path d="M269.98 165.575C269.98 165.575 272.678 171.645 265.051 175.017C257.425 178.388 231.712 172.278 227.533 171.402C226.225 171.127 223.889 168.863 221.296 165.883C220.133 164.545 218.917 163.062 217.72 161.551C217.027 160.676 215.004 160.85 214.338 159.978C213.674 159.111 214.367 157.197 213.756 156.376C210.855 152.481 208.693 149.36 208.693 149.36L211.45 139.378C219.971 141.143 226.072 147.885 231.499 156.012L269.98 165.575Z" fill="#91C0C8"/>
<path d="M278.204 153.887C286.8 153.887 293.769 147.813 293.769 140.321C293.769 132.829 286.8 126.756 278.204 126.756C269.607 126.756 262.638 132.829 262.638 140.321C262.638 147.813 269.607 153.887 278.204 153.887Z" fill="#FFB6B6"/>
<path d="M295.972 132.554C294.335 130.347 291.262 128.875 288.283 129.289C288.006 127.632 287.213 126.073 285.989 124.783C284.766 123.492 283.16 122.518 281.346 121.968C279.531 121.417 277.579 121.311 275.7 121.661C273.821 122.011 272.089 122.803 270.691 123.952C270.232 123.67 269.696 123.496 269.137 123.447C268.577 123.398 268.013 123.476 267.498 123.673C266.473 124.079 265.581 124.703 264.904 125.488C263.195 127.345 262.096 129.572 261.724 131.931C261.351 134.29 261.72 136.692 262.79 138.883C262.426 137.73 263.752 136.645 265.093 136.386C266.432 136.127 267.838 136.372 269.197 136.203C270.939 135.988 272.504 135.107 274.248 134.909C275.728 134.825 277.211 134.991 278.618 135.398C280.025 135.805 281.507 135.979 282.986 135.909C284.455 135.758 286.346 140.606 286.32 144.022C286.316 144.669 286.469 145.5 287.194 145.637C288.088 145.806 288.606 144.731 289.457 144.438C289.849 144.34 290.269 144.379 290.629 144.546C290.989 144.713 291.261 144.995 291.387 145.333C291.494 145.677 291.506 146.038 291.421 146.386C291.335 146.734 291.156 147.06 290.897 147.335C290.374 147.882 289.754 148.351 289.059 148.725L289.409 148.979C289.742 149.285 290.186 149.481 290.666 149.533C291.147 149.585 291.633 149.49 292.041 149.264C292.844 148.79 293.495 148.144 293.931 147.389C295.572 145.176 296.746 142.725 297.396 140.151C297.945 137.567 297.609 134.762 295.972 132.554Z" fill="#2F2E41"/>
<path d="M411.125 186.057C391.048 199.31 351.1 195.123 338.703 217.824C301.167 286.555 269.056 234.198 236.191 228.536L235.888 227.132C268.788 229.511 304.077 225.821 337.941 216.461C368.544 208.004 395.847 195.422 416.898 180.092L418 181.291C415.777 182.911 413.486 184.5 411.125 186.057Z" fill="#F05740"/>
</g>
<defs>
<clipPath id="clip0_7_18">
<rect width="418" height="367" fill="white"/>
</clipPath>
</defs>
</svg>
