<svg width="408" height="342" viewBox="0 0 408 342" fill="none" xmlns="http://www.w3.org/2000/svg">
<g clip-path="url(#clip0_14_199)">
<path d="M353.146 289.782H53.8532V242.971H58.4702V208.128C58.4803 199.919 62.0244 192.048 68.3251 186.243C74.6258 180.439 83.1685 177.173 92.079 177.164H315.463C324.373 177.173 332.916 180.439 339.217 186.243C345.517 192.048 349.062 199.919 349.072 208.128V242.971H353.146V289.782Z" fill="#F05740"/>
<path d="M361.255 341.305H346.356V341.055C346.341 328.915 341.1 317.276 331.782 308.692C322.465 300.108 309.832 295.279 296.655 295.266H110.344C97.167 295.279 84.534 300.108 75.2165 308.692C65.8989 317.276 60.6578 328.915 60.6429 341.055V341.305H45.7439C42.3495 341.302 39.0952 340.058 36.6949 337.846C34.2947 335.635 32.9445 332.637 32.9407 329.51V252.988C28.6143 250.736 25.0954 238.506 27.3811 228.738C28.8155 222.608 32.9564 215.205 44.5378 214.747C55.8119 214.3 64.18 224.052 64.9275 233.438C65.3326 238.378 63.758 243.283 60.5017 247.224H60.6429V258.141C85.0907 250.923 109.573 247.25 133.415 247.224C157.813 247.246 182.041 250.961 205.131 258.22C253.14 243.915 300.651 243.636 346.356 257.396V247.224H346.497C343.241 243.283 341.666 238.378 342.071 233.438C342.891 223.143 352.033 214.758 362.449 214.747H362.484C374.767 214.747 379.111 221.559 380.593 227.278C383.216 237.397 378.401 250.717 374.058 252.988V329.51C374.054 332.637 372.704 335.635 370.304 337.846C367.904 340.058 364.649 341.302 361.255 341.305Z" fill="#D83921"/>
<path d="M278.016 320.829L285.207 325.562L308.445 302.258L297.831 295.273L278.016 320.829Z" fill="#FFB6B6"/>
<path d="M277.859 317.458L279.883 318.79L290.082 321.031L292.022 326.779L292.022 326.78C294.416 328.355 296.032 330.742 296.515 333.415C296.999 336.089 296.31 338.83 294.6 341.035L294.39 341.305L271.202 326.044L277.859 317.458Z" fill="#2F2E41"/>
<path d="M326.749 258.439H273.943C269.019 258.436 264.297 256.632 260.816 253.424C257.335 250.215 255.38 245.864 255.38 241.327C255.38 236.791 257.335 232.44 260.816 229.231C264.297 226.022 269.019 224.218 273.943 224.216H326.749C331.675 224.216 336.399 226.019 339.882 229.228C343.365 232.437 345.322 236.789 345.322 241.327C345.322 245.866 343.365 250.218 339.882 253.427C336.399 256.636 331.675 258.439 326.749 258.439Z" fill="#2F2E41"/>
<path d="M300.841 138.954L309.359 144.929L319.631 147.837C319.631 147.837 323.878 202.87 327.704 206.395C331.53 209.92 328.079 210.015 328.848 214.595C329.617 219.174 331.486 228.562 331.486 228.562C305.658 241.158 283.391 241.496 265.505 226.756C265.276 225.844 265.392 224.888 265.835 224.045C266.277 223.203 267.018 222.525 267.936 222.123C271.264 220.496 264.867 212.901 267.587 211.631C270.308 210.361 266.482 199.345 266.482 199.345L268.992 176.36L267.009 172.686L271.848 150.204L280.245 147.379L283.6 139.933L300.841 138.954Z" fill="#91C0C8"/>
<path d="M306.177 87.5733C306.139 88.5672 306.338 89.5567 306.76 90.4721C307.181 91.3875 307.816 92.2066 308.618 92.8716C309.421 93.5366 310.372 94.0315 311.405 94.3212C312.437 94.611 313.526 94.6887 314.595 94.5487L326.599 116.044L333.287 105.097L320.862 86.3629C320.488 84.7244 319.475 83.2694 318.014 82.2734C316.553 81.2774 314.746 80.8097 312.936 80.9589C311.126 81.1081 309.438 81.8638 308.193 83.0829C306.947 84.302 306.23 85.8997 306.177 87.5733H306.177Z" fill="#FFB6B6"/>
<path d="M326.393 92.8317L352.139 129.595L352.054 129.764C351.957 129.958 346.127 141.559 340.478 152.185C339.608 153.821 338.742 155.434 337.902 156.979C337.54 157.646 337.183 158.299 336.831 158.938C334.458 163.247 332.385 166.809 331.148 168.501C328.411 172.327 324.336 175.175 319.599 176.572L319.48 176.601L319.366 176.557C317.05 175.656 315.135 174.055 313.939 172.018C312.742 169.98 312.335 167.628 312.785 165.348C315.018 154.354 319.994 143.989 327.321 135.07L331.495 130.002L316.99 100.948L326.393 92.8317Z" fill="#91C0C8"/>
<path d="M281.91 83.0694C281.948 84.0633 281.749 85.0528 281.328 85.9682C280.906 86.8836 280.271 87.7027 279.469 88.3677C278.666 89.0328 277.715 89.5276 276.682 89.8174C275.65 90.1071 274.561 90.1848 273.492 90.0449L261.488 111.541L254.8 100.593L267.225 81.859C267.599 80.2206 268.613 78.7655 270.073 77.7695C271.534 76.7735 273.341 76.3058 275.151 76.455C276.961 76.6042 278.649 77.36 279.895 78.579C281.14 79.7981 281.857 81.3958 281.91 83.0694H281.91Z" fill="#FFB6B6"/>
<path d="M261.694 88.3278L235.948 125.091L236.033 125.261C236.13 125.454 241.96 137.055 247.609 147.681C248.479 149.317 249.345 150.931 250.185 152.475C250.547 153.142 250.904 153.795 251.256 154.434C253.629 158.743 255.702 162.305 256.939 163.997C259.676 167.823 263.751 170.671 268.488 172.068L268.607 172.097L268.721 172.053C271.037 171.152 272.952 169.551 274.148 167.514C275.345 165.476 275.752 163.124 275.302 160.844C273.069 149.85 268.093 139.485 260.766 130.566L256.592 125.498L271.097 96.4445L261.694 88.3278Z" fill="#91C0C8"/>
<path d="M292.122 135.628C301.427 135.628 308.97 128.679 308.97 120.106C308.97 111.534 301.427 104.584 292.122 104.584C282.817 104.584 275.274 111.534 275.274 120.106C275.274 128.679 282.817 135.628 292.122 135.628Z" fill="#FFB6B6"/>
<path d="M278.399 106.771C279.785 103.058 286.682 100.482 297.863 100.124C309.045 99.7657 311.881 111.906 311.881 111.906C319.345 117.484 303.91 132.42 303.163 131.882L303.499 129.076C304.055 124.428 306.417 120.801 303.413 115.957L300.528 115.988L295.056 116.957C294.715 117.018 294.362 116.973 294.051 116.83C293.74 116.687 293.489 116.454 293.336 116.167C293.183 115.88 293.137 115.554 293.205 115.24C293.272 114.926 293.45 114.642 293.711 114.43L293.761 114.39L293.637 114.212C291.709 115.027 289.723 115.783 287.615 115.897C285.245 116.025 282.653 115.156 281.517 113.234C281.214 112.706 281.028 112.127 280.972 111.532C277.775 112.709 276.313 116.34 276.313 116.34C276.313 116.34 277.013 110.485 278.399 106.771Z" fill="#2F2E41"/>
<path d="M323.901 314.226L317.156 319.487L291.918 298.023L301.872 290.257L323.901 314.226Z" fill="#FFB6B6"/>
<path d="M331.158 318.907L309.41 335.873L309.177 335.62C307.276 333.551 306.344 330.872 306.588 328.171C306.831 325.47 308.228 322.969 310.473 321.217L310.474 321.217L311.894 315.341L321.858 312.336L323.757 310.855L331.158 318.907Z" fill="#2F2E41"/>
<path d="M282.217 254.875L287.792 243.736C287.73 233.577 278.499 225.325 267.492 225.962C261.363 226.317 255.624 229.475 253.252 238.862C247.155 263.001 306.985 313.233 306.985 313.233L317.979 306.973L318.485 300.361L312.328 296.865L312.323 291.225L306.452 288.66L282.217 254.875Z" fill="#2F2E41"/>
<path d="M318.843 251.807L311.952 242.472C311.108 232.342 319.571 223.42 330.597 223.22C336.737 223.109 342.739 225.822 345.94 234.998C354.171 258.593 299.027 313.187 299.027 313.187L287.512 307.782L286.417 301.23L292.24 297.279L291.743 291.658L297.365 288.657L318.843 251.807Z" fill="#2F2E41"/>
<path d="M180.125 333.384L171.884 333.383L167.963 304.096L180.127 304.096L180.125 333.384Z" fill="#A0616A"/>
<path d="M180.416 341.305L155.071 341.304V341.009C155.071 338.599 156.111 336.287 157.961 334.583C159.811 332.878 162.32 331.921 164.936 331.921H164.937L169.566 328.685L178.204 331.921L180.416 331.921L180.416 341.305Z" fill="#2F2E41"/>
<path d="M238.441 333.384L246.682 333.383L250.603 304.096L238.439 304.096L238.441 333.384Z" fill="#A0616A"/>
<path d="M238.15 341.305L263.495 341.304V341.009C263.495 338.599 262.455 336.287 260.605 334.583C258.755 332.878 256.246 331.921 253.63 331.921H253.629L249 328.685L240.362 331.921L238.15 331.921L238.15 341.305Z" fill="#2F2E41"/>
<path d="M167.6 282.574C167.722 280.902 168.69 271.66 168.69 271.66L171.008 252.06L175.094 200.104L175.36 196.703L196.762 192.918L211.39 186.458L228.775 191.578L242.313 196.255C242.313 196.255 242.336 198.257 242.441 200.676C242.58 203.842 242.823 207.724 243.403 208.733C244.371 210.516 244.127 220.089 244.127 220.089C244.127 220.089 245.089 239.566 246.3 241.702C247.512 243.838 247.755 248.285 247.39 249.177C247.025 250.069 248.601 273.46 248.601 273.46C248.601 273.46 252.647 314.853 250.109 321.095C247.57 327.336 237.978 323.248 237.978 323.248C237.978 323.248 238.442 321.582 235.66 320.797C232.879 320.012 224.406 261.318 224.406 261.318C224.406 261.318 222.829 249.284 221.381 245.835C219.932 242.386 218.599 232.695 218.599 232.695C218.599 232.695 209.651 216.656 209.535 213.089C209.535 213.089 208.364 209.752 207.257 213.426C206.151 217.099 202.888 225.898 202.888 225.898L199.706 236.705L195.962 252.85L193.54 266.444C193.54 266.444 189.912 284.485 189.333 285.265C188.753 286.044 189.333 302.526 189.333 302.526C189.333 302.526 186.528 316.563 182.564 319.014C178.6 321.464 168.097 319.052 168.097 319.052C168.097 319.052 167.478 284.245 167.6 282.574Z" fill="#2F2E41"/>
<path d="M176.731 142.505L181.489 153.983L175.618 159.581L178.203 161.711L176.296 164.724L171.323 196.294L198.585 204.574L207.764 195.356L215.003 204.574L246.547 198.401L238.503 158.142V155.51L236.231 150.428V139.669L246.663 107.644L224.328 102.622L215.768 97.1965L212.998 104.827L201.204 103.147L200.897 97.4147L191.874 104.242L179.843 105.978L170.744 107.644L169.585 109.965L171.903 109.501L175.96 139.692L176.731 142.505Z" fill="#2F2E41"/>
<path d="M195.075 111.515L200.897 97.4475L215.768 97.1966L220.703 111.515L238.439 202.798C238.439 202.798 184.102 216.739 184.653 199.981C185.232 182.362 187.847 158.958 187.847 158.958L195.075 111.515Z" fill="#3F3D56"/>
<path d="M208 93.5127C217.675 93.5127 225.518 86.287 225.518 77.3736C225.518 68.4602 217.675 61.2345 208 61.2345C198.325 61.2345 190.482 68.4602 190.482 77.3736C190.482 86.287 198.325 93.5127 208 93.5127Z" fill="#A0616A"/>
<path d="M189.449 65.6656C192.301 62.8058 195.868 57.5709 206.673 55.3726C220.024 52.6563 226.333 63.768 222.966 63.9501C232.811 66.6968 226.487 85.4671 223.665 83.8929C223.64 83.8773 223.617 83.8606 223.595 83.8427C222.077 82.8129 220.803 81.5087 219.85 80.0098C218.898 78.511 218.287 76.849 218.055 75.1254L217.52 70.6836C217.443 74.2976 213.434 74.7757 209.338 73.4447C209.58 72.6523 210.042 71.9318 210.679 71.3543C211.316 70.7768 212.105 70.3622 212.968 70.1514C210.463 72.2807 207.201 73.804 202.646 74.2894C203.205 72.2953 204.319 70.8274 206.063 69.9573L205.901 69.811C204.232 70.9813 202.493 72.1061 200.486 72.6361C198.228 73.2323 195.522 72.9098 193.975 71.2815C193.559 70.8321 193.244 70.3104 193.05 69.7471C193.384 72.6092 191.301 75.8763 189.682 75.3154C188.335 75.0743 187.551 67.5694 189.449 65.6656Z" fill="#2F2E41"/>
<path d="M229.599 76.4836L245.531 101.178L257.306 96.0538C257.306 96.0538 237.016 72.7057 236.369 72.034C236.646 70.8991 236.543 69.7136 236.072 68.6342C235.602 67.5548 234.787 66.6324 233.735 65.9891C232.683 65.3457 231.444 65.0117 230.182 65.0312C228.919 65.0507 227.693 65.4228 226.665 66.0983C225.638 66.7738 224.857 67.7209 224.426 68.8142C223.995 69.9075 223.935 71.0956 224.253 72.2213C224.57 73.3469 225.252 74.3571 226.207 75.1182C227.161 75.8793 228.344 76.3555 229.599 76.4836Z" fill="#A0616A"/>
<path d="M237.313 137.849L262.038 121.439C263.651 120.368 265.004 118.999 266.01 117.42C267.017 115.84 267.654 114.084 267.881 112.264C268.109 110.445 267.922 108.602 267.333 106.852C266.743 105.103 265.764 103.487 264.457 102.106L246.663 83.3001L238.911 92.9778L244.886 104.488L233.316 107.298L237.313 137.849Z" fill="#2F2E41"/>
<path d="M194.875 78.8047L178.943 103.499L167.168 98.3748C167.168 98.3748 187.458 75.0267 188.105 74.355C187.828 73.2201 187.932 72.0346 188.402 70.9552C188.872 69.8758 189.687 68.9535 190.739 68.3101C191.791 67.6667 193.03 67.3327 194.292 67.3522C195.555 67.3717 196.781 67.7439 197.809 68.4194C198.837 69.0949 199.618 70.0419 200.048 71.1353C200.479 72.2286 200.54 73.4167 200.222 74.5423C199.904 75.668 199.222 76.6782 198.268 77.4392C197.313 78.2003 196.13 78.6765 194.875 78.8047Z" fill="#A0616A"/>
<path d="M187.161 140.17L162.436 123.76C160.823 122.689 159.47 121.32 158.464 119.741C157.458 118.161 156.821 116.405 156.593 114.586C156.365 112.766 156.552 110.923 157.142 109.173C157.731 107.424 158.711 105.808 160.017 104.427L177.812 85.6212L185.564 95.2989L179.589 106.809L191.158 109.619L187.161 140.17Z" fill="#2F2E41"/>
<path d="M16.3392 88.1003C16.719 88.6178 17.2175 89.0522 17.7993 89.373C18.3811 89.6937 19.0322 89.8931 19.7067 89.957C20.3812 90.0209 21.0627 89.9477 21.7032 89.7427C22.3437 89.5377 22.9276 89.2058 23.4138 88.7703L38.1415 95.5874L37.1382 87.7508L23.3063 82.4787C22.4582 81.7748 21.3592 81.3819 20.2177 81.3745C19.0762 81.3671 17.9714 81.7457 17.1126 82.4386C16.2538 83.1316 15.7008 84.0906 15.5582 85.1341C15.4157 86.1776 15.6936 87.233 16.3392 88.1003Z" fill="#9E616A"/>
<path d="M77.2676 119.731L69.9346 115.071C69.9346 115.071 61.5371 114.547 60.2742 112.087C59.0112 109.628 58.7984 110.455 57.452 110.161C56.1056 109.866 55.4109 106.164 53.154 106.601C48.0763 107.584 24.1961 93.0462 26.7734 91.2292L28.6892 83.7869C30.7135 84.4832 32.8241 84.9443 34.9722 85.1597C38.2201 85.4327 45.8725 88.8515 47.006 89.9726C48.1394 91.0937 50.1474 90.659 52.8401 91.2474C55.5328 91.8357 56.4753 95.8262 60.9413 94.7643C67.2252 93.2703 99.7803 107.496 103.303 108.824C107.168 110.281 109.867 114.626 109.867 114.626L108.803 118.76L77.2676 119.731Z" fill="#91C0C8"/>
<path d="M130.19 331.103H136.581L139.622 308.392H130.19L130.19 331.103Z" fill="#9E616A"/>
<path d="M128.104 327.07L138.315 326.509V330.539L148.022 336.716C148.502 337.021 148.863 337.459 149.053 337.967C149.243 338.474 149.252 339.024 149.078 339.537C148.905 340.049 148.558 340.497 148.089 340.815C147.62 341.134 147.052 341.305 146.469 341.305H134.313L132.218 337.318L131.4 341.305H126.817L128.104 327.07Z" fill="#2F2E41"/>
<path d="M50.0872 326.101L56.0253 328.278L67.9682 308.214L59.2045 305L50.0872 326.101Z" fill="#9E616A"/>
<path d="M49.7683 321.643L59.4803 324.601L57.8623 328.345L64.402 337.392C64.725 337.838 64.8846 338.369 64.8574 338.905C64.8302 339.441 64.6177 339.955 64.2508 340.372C63.884 340.789 63.382 341.088 62.8183 341.223C62.2545 341.359 61.6584 341.325 61.117 341.126L49.8229 336.984L49.4765 332.566L47.116 335.992L42.8577 334.43L49.7683 321.643Z" fill="#2F2E41"/>
<path d="M117.307 263.522L106.65 217.702L90.0078 268.612L63.6562 316.889L63.5166 317.145L55.1693 313.004C53.9912 293.402 56.7891 275.033 67.0223 258.971L71.868 214.884C72.0165 213.377 75.6311 178.012 87.0765 171.74L90.4284 164.699L123.766 157.113L123.888 157.239C127.093 160.558 129.211 164.648 129.995 169.032L139.956 224.63L139.962 224.661L137.291 263.448L140.945 320.67H127.724C119.546 306.493 116.074 287.443 117.307 263.522Z" fill="#2F2E41"/>
<path d="M146.006 71.3533C146.514 71.767 146.918 72.2782 147.188 72.851C147.459 73.4239 147.589 74.0444 147.571 74.6688C147.553 75.2933 147.387 75.9065 147.084 76.4653C146.781 77.0242 146.349 77.515 145.817 77.9032L151.261 92.2358L142.955 90.3113L139.059 76.9958C138.41 76.1304 138.129 75.0759 138.267 74.032C138.406 72.9881 138.956 72.0274 139.812 71.3319C140.668 70.6364 141.772 70.2544 142.913 70.2584C144.055 70.2623 145.155 70.6519 146.006 71.3533H146.006Z" fill="#9E616A"/>
<path d="M80.6019 179.616C79.7041 179.616 79.1941 179.454 78.9966 179.106C78.7069 178.596 79.2097 177.929 79.7919 177.156C80.1979 176.618 81.384 175.547 80.8007 175.482C71.957 174.487 76.2022 124.253 80.0349 117.613C80.8136 116.264 79.9897 114.194 80.8666 111.905C83.2621 105.652 86.5318 103.73 93.0456 99.9022C93.5744 99.5914 94.125 99.2668 94.6975 98.9284C95.438 98.49 95.3967 97.0364 95.3531 95.4971C95.3047 93.7863 95.2545 92.017 96.1642 90.9113L96.2234 90.8392L96.3188 90.8187C98.5192 90.3501 105.92 89.4801 110.302 90.825L110.363 90.8441L110.408 90.8855C111.449 91.8446 111.544 93.7025 111.636 95.4991C111.711 96.9741 111.782 98.3668 112.371 98.9718C116.874 103.596 121.981 103.506 122.033 103.505L122.286 103.498L122.311 103.73C125.468 109.266 122.996 129.827 125.191 142.598C127.42 155.573 146.46 166.618 130.157 168.579C130.192 168.629 130.212 168.687 130.214 168.746C130.216 168.806 130.2 168.865 130.168 168.916C129.183 170.612 83.9858 179.616 80.6019 179.616Z" fill="#91C0C8"/>
<path d="M154.304 116.346L145.255 120.481C127.818 126.652 118.705 125.149 114.126 122.803C109.241 120.3 108.394 116.462 108.361 116.3L108.358 116.222L109.474 108.076C109.616 107.041 109.995 106.046 110.586 105.157C111.177 104.267 111.966 103.503 112.902 102.916C113.837 102.329 114.898 101.932 116.013 101.751C117.127 101.57 118.271 101.609 119.368 101.866L140.187 106.747L139.807 97.437L140.631 94.0846L139.112 90.0097L139.734 81.8257L147.202 80.1419L155.035 93.0679L153.628 96.6353L154.954 98.4113L154.951 98.4936L154.304 116.346Z" fill="#91C0C8"/>
<path d="M407.353 341.846L0.646778 342C0.475572 342 0.311552 341.937 0.190666 341.825C0.0697801 341.713 0.00189209 341.562 0.00189209 341.404C0.00189209 341.246 0.0697801 341.095 0.190666 340.983C0.311552 340.872 0.475572 340.809 0.646778 340.808L407.353 340.654C407.525 340.655 407.689 340.718 407.809 340.83C407.93 340.941 407.998 341.093 407.998 341.25C407.998 341.408 407.93 341.559 407.809 341.671C407.689 341.783 407.525 341.846 407.353 341.846Z" fill="#CACACA"/>
<path d="M281.087 53.0331C286.09 43.2326 282.041 31.7759 274.812 28.6433C267.582 25.5106 255.422 29.9436 250.418 39.7441C245.787 48.8156 249.237 59.4408 255.175 63.3116C255.075 63.3387 254.982 63.3832 254.9 63.4426L253.473 64.5252C253.364 64.6077 253.28 64.7145 253.229 64.8354C253.178 64.9562 253.161 65.0872 253.18 65.2158C253.199 65.3444 253.253 65.4664 253.338 65.5703C253.422 65.6741 253.534 65.7562 253.663 65.8089L257.261 67.2822C257.39 67.3349 257.531 67.3565 257.672 67.3447C257.812 67.333 257.947 67.2884 258.063 67.2153C258.18 67.1421 258.274 67.0427 258.337 66.9265C258.4 66.8104 258.429 66.6814 258.423 66.5517L258.339 64.8505C258.335 64.7914 258.323 64.7328 258.304 64.6762C265.334 66.456 276.446 62.1244 281.087 53.0331Z" fill="#F05740"/>
<path d="M276.989 38.9773C278.124 42.0131 277.952 45.3347 276.506 48.2565C275.06 51.1783 272.452 53.4772 269.22 54.6788C268.484 54.9612 269.072 55.9675 269.803 55.687C273.267 54.3576 276.057 51.8709 277.614 48.7255C279.171 45.5802 279.38 42.0088 278.199 38.7275C277.949 38.0354 276.737 38.2801 276.989 38.9773Z" fill="white"/>
<path d="M368.868 85.872C378.992 80.367 382.646 68.7983 378.586 62.4596C374.525 56.1209 361.765 53.4775 351.642 58.9825C342.271 64.078 338.629 74.6487 341.172 80.9276C341.073 80.8982 340.968 80.8865 340.864 80.8932L339.024 81.048C338.883 81.0598 338.749 81.1045 338.632 81.1777C338.516 81.251 338.422 81.3504 338.359 81.4666C338.296 81.5828 338.267 81.7118 338.273 81.8415C338.28 81.9712 338.322 82.0972 338.396 82.2075L340.47 85.2915C340.544 85.4019 340.648 85.4929 340.771 85.556C340.894 85.6191 341.033 85.6522 341.174 85.652C341.315 85.6519 341.453 85.6186 341.576 85.5553C341.699 85.4919 341.803 85.4007 341.876 85.2902L342.847 83.8406C342.879 83.7895 342.905 83.7349 342.924 83.6781C347.647 88.7953 359.477 90.9786 368.868 85.872Z" fill="#F05740"/>
<path d="M374.07 72.1296C373.154 75.2276 370.981 77.8832 368.001 79.5483C365.021 81.2133 361.461 81.7607 358.055 81.0775C357.274 80.929 357.145 82.0656 357.921 82.2131C361.596 82.9109 365.422 82.3028 368.631 80.5108C371.839 78.7188 374.194 75.8754 375.223 72.5508C375.439 71.8492 374.288 71.4228 374.07 72.1296Z" fill="white"/>
<path d="M304.429 40.8577C303.153 38.2721 302.561 35.4448 302.701 32.6077C302.841 29.7706 303.708 27.0043 305.233 24.5357C305.667 23.8403 306.1 22.9984 307.053 22.8648C307.413 22.8044 307.784 22.8583 308.107 23.0177C308.429 23.1771 308.683 23.4326 308.828 23.7423C308.955 24.1544 308.932 24.5936 308.761 24.9922C308.591 25.3908 308.283 25.7267 307.885 25.948C307.486 26.1694 307.02 26.2639 306.558 26.217C306.096 26.1701 305.663 25.9844 305.327 25.6886C303.52 24.3477 303.75 21.9879 303.924 20.0884C304.319 15.7601 304.313 11.216 302.314 7.18755C300.465 3.46032 296.69 0.342717 292.131 0.00223456C291.333 -0.0573166 291.288 1.08459 292.082 1.14386C296.604 1.48155 300.142 4.91373 301.645 8.6701C302.494 10.9316 302.916 13.3103 302.893 15.7032C302.908 16.9314 302.846 18.1594 302.743 19.3837C302.588 20.5772 302.547 21.781 302.622 22.9811C302.835 24.9396 304.12 27.0395 306.419 27.3524C308.563 27.6444 310.658 25.5778 310.078 23.6139C309.938 23.1894 309.686 22.8034 309.344 22.4907C309.002 22.178 308.582 21.9483 308.12 21.8221C307.658 21.696 307.17 21.6774 306.698 21.768C306.227 21.8586 305.787 22.0556 305.419 22.3413C304.614 22.9608 304.09 24.0247 303.631 24.8749C302.243 27.4328 301.497 30.2448 301.445 33.1038C301.394 35.9629 302.04 38.7961 303.334 41.3948C303.675 42.0604 304.768 41.5217 304.429 40.8578L304.429 40.8577Z" fill="#F05740"/>
<path d="M117.238 94.111C116.771 93.3253 115.967 91.0783 115.066 91.1084C114.143 91.1456 113.219 91.0733 112.317 90.8932C112.219 90.8782 112.121 90.8582 112.029 90.8381C108.22 89.9624 104.314 89.4922 100.389 89.4369C97.2221 89.3969 93.7457 89.7472 91.5349 91.834C89.3242 93.9208 89.6501 98.2245 92.6974 99.0201C82.5139 100.645 72.0457 98.5069 63.5611 93.07C58.1674 89.577 53.8436 84.898 49.2701 80.5243C44.6965 76.1455 39.6558 71.9369 33.4907 69.795C27.3201 67.6482 19.7753 67.9485 14.8052 71.9469C8.74334 76.8211 8.27621 85.2083 8.27078 92.6196C8.26534 95.392 9.20505 94.8065 11.8612 96.1126C14.3272 97.3237 16.9182 99.8158 18.4228 97.649C19.9274 95.4821 20.1936 92.8048 20.5032 90.2476C20.8074 87.6904 21.2582 84.9981 23.0181 83.0014C26.0437 79.5684 32.0023 79.5334 36.1794 81.7103C40.3565 83.8871 43.1647 87.6954 45.8209 91.3786C48.477 95.0567 51.2798 98.875 55.4515 101.067C60.9321 103.944 67.8143 103.519 73.5339 105.971C77.1678 107.532 80.1064 110.15 83.1211 112.577C86.1412 115.004 89.4491 117.341 93.3655 118.127C97.2764 118.917 101.921 117.726 103.843 114.488C105.576 111.561 104.729 107.813 106.271 104.79C107.461 102.458 109.889 100.912 112.078 99.3004C112.98 98.6348 113.213 100.927 113.979 100.116C116.19 99.7108 118.265 95.8374 117.238 94.111Z" fill="#3F3D56"/>
<path d="M102.008 89.9705C111.487 89.9705 119.171 82.891 119.171 74.1579C119.171 65.4248 111.487 58.3453 102.008 58.3453C92.5286 58.3453 84.8443 65.4248 84.8443 74.1579C84.8443 82.891 92.5286 89.9705 102.008 89.9705Z" fill="#2F2E41"/>
<path d="M103.389 91.2757C110.199 91.098 115.563 85.8682 115.37 79.5947C115.177 73.3212 109.5 68.3796 102.691 68.5573C95.8813 68.7351 90.5176 73.9649 90.7105 80.2384C90.9035 86.5119 96.58 91.4535 103.389 91.2757Z" fill="#9E616A"/>
<path d="M103.159 62.5861L98.1593 62.7166C95.0082 62.8013 92.0224 64.0341 89.8569 66.1447C87.6915 68.2553 86.5234 71.0712 86.609 73.9744L86.6121 74.0764L86.7032 74.129C89.421 75.7857 92.6288 76.6266 95.8862 76.5361L96.1672 76.5288L98.93 76.4135C99.3947 75.311 99.5501 74.1184 99.3818 72.9459C99.799 74.0573 100.125 75.1961 100.356 76.3527L112.752 75.8327C113.474 75.7998 114.152 75.5085 114.644 75.021C115.135 74.5335 115.401 73.8884 115.383 73.2233C115.29 70.3203 113.951 67.5699 111.659 65.5756C109.367 63.5813 106.311 62.5062 103.159 62.5861Z" fill="#2F2E41"/>
<path d="M93.1956 59.7347C92.0671 61.0168 90.2549 61.5511 88.6267 62.2455C85.7539 63.4971 83.2559 65.3755 81.3492 67.7177C79.4425 70.0599 78.1847 72.7952 77.6849 75.6865C77.3013 78.0409 77.4355 80.4643 76.7859 82.7667C76.1406 85.0691 74.4378 87.3558 71.9073 87.8185C70.195 88.1342 68.4513 87.5671 66.8143 87.0051C65.914 86.6987 65.0137 86.391 64.1133 86.0821C64.9758 83.9115 65.8368 81.7409 66.6964 79.5705C65.2711 81.6349 63.5984 83.5451 61.7098 85.2652C58.4833 84.1635 55.254 83.0618 52.0219 81.9602C59.8849 81.7825 58.327 74.786 59.869 67.685C60.7166 63.7831 68.8686 60.9431 70.3693 57.2125C71.18 55.1892 72.6029 53.4222 74.4696 52.1206C76.3363 50.8191 78.5687 50.0375 80.9025 49.8683C83.2363 49.6991 85.5739 50.1495 87.6386 51.1661C89.7033 52.1827 91.4086 53.7229 92.5528 55.6046C94.1852 56.1549 94.3032 58.4688 93.1956 59.7347Z" fill="#2F2E41"/>
<path d="M93.9818 64.4373C97.5115 64.4373 100.373 61.8011 100.373 58.5492C100.373 55.2973 97.5115 52.6611 93.9818 52.6611C90.452 52.6611 87.5906 55.2973 87.5906 58.5492C87.5906 61.8011 90.452 64.4373 93.9818 64.4373Z" fill="#2F2E41"/>
</g>
<defs>
<clipPath id="clip0_14_199">
<rect width="408" height="342" fill="white"/>
</clipPath>
</defs>
</svg>
